<svg width="214" height="47" viewBox="0 0 214 47" fill="none" xmlns="http://www.w3.org/2000/svg">
<path d="M21.8909 1.56219C23.341 -0.520727 26.6401 -0.520729 28.0902 1.56218L38.8926 17.0787C40.4679 19.3415 38.7074 22.3164 35.793 22.3164L14.1881 22.3164C11.2737 22.3164 9.51311 19.3415 11.0884 17.0787L21.8909 1.56219Z" fill="#2C2C2C"/>
<mask id="mask0" mask-type="alpha" maskUnits="userSpaceOnUse" x="10" y="0" width="30" height="23">
<path d="M21.8909 1.56219C23.341 -0.520727 26.6401 -0.520729 28.0902 1.56218L38.8926 17.0787C40.4679 19.3415 38.7074 22.3164 35.793 22.3164L14.1881 22.3164C11.2737 22.3164 9.51311 19.3415 11.0884 17.0787L21.8909 1.56219Z" fill="white"/>
</mask>
<g mask="url(#mask0)">
<path d="M42.6117 11.9525C42.6117 11.9525 31.437 10.3607 27.3972 10.3735C23.3573 10.3864 13.6484 12.2714 13.6484 12.2714C12.5491 12.2835 11.5136 12.7457 10.8217 13.531C8.73133 15.9034 5.85379 19.144 5.61906 19.3074C5.26942 19.5507 48.4501 21.0514 48.9163 21.092C49.2165 21.1181 47.4736 17.1533 46.0324 14.0045C45.4551 12.7431 44.1004 11.9362 42.6117 11.9525Z" fill="#7F2614"/>
<path d="M20.8451 16.0556C17.7766 16.6725 14.2003 16.2655 11.9925 15.8846C10.6871 15.6593 9.31539 15.9859 8.373 16.8479L4.81326 20.1042C2.59524 22.1331 3.94438 25.6243 7.05607 25.8984C25.1508 27.4927 50.9937 29.7992 51.5176 29.9679C52.0603 30.1426 46.9447 21.6204 43.4968 15.9917C42.8055 14.8632 41.4827 14.2013 40.0792 14.288C35.3399 14.5808 24.5768 15.3053 20.8451 16.0556Z" fill="#AA3C22"/>
<path d="M20.2757 20.6089C15.2041 21.4694 10.6888 19.2231 8.95895 17.9222C8.89297 17.8726 8.81231 17.8457 8.72714 17.8457C8.62566 17.8457 8.52889 17.8851 8.46065 17.9543L7.74745 18.6775C6.13836 20.3091 7.3949 22.925 9.7877 22.925L41.5448 22.925C42.837 22.925 43.7554 21.7663 43.3618 20.6323C43.0558 19.7504 42.054 19.2279 41.0513 19.29C39.1333 19.4088 36.1608 19.283 32.7408 18.3333C26.7413 16.6673 26.7413 19.5117 20.2757 20.6089Z" fill="#B66225"/>
</g>
<path d="M19.4062 45.4264C17.926 47.5249 14.5121 47.5249 12.9912 45.4264L1.66061 29.7941C0.00830364 27.5145 1.80093 24.5173 4.81672 24.5173L27.1733 24.5173C30.1891 24.5173 32.0401 27.5145 30.4322 29.7941L19.4062 45.4264Z" fill="#2C2C2C"/>
<mask id="mask1" mask-type="alpha" maskUnits="userSpaceOnUse" x="1" y="24" width="30" height="24">
<path d="M19.5182 45.4264C18.0877 47.5249 14.7133 47.5249 13.1774 45.4264L1.73569 29.7941C0.067172 27.5144 1.79265 24.5173 4.77357 24.5173L26.8717 24.5173C29.8526 24.5173 31.7287 27.5144 30.1747 29.7941L19.5182 45.4264Z" fill="white"/>
</mask>
<g mask="url(#mask1)">
<path d="M-1.62955 34.9574C-1.62955 34.9574 9.88641 36.5611 14.003 36.5482C18.1197 36.5352 27.8662 34.6361 27.8662 34.6361C28.9857 34.6239 30.0045 34.1583 30.6476 33.3671C32.5902 30.977 35.2665 27.7122 35.4928 27.5476C35.8299 27.3025 -8.30114 25.7905 -8.77952 25.7497C-9.0875 25.7234 -6.99701 29.7178 -5.27867 32.8901C-4.59029 34.1609 -3.14562 34.9739 -1.62955 34.9574Z" fill="#7F2614"/>
<path d="M20.641 30.8232C23.7062 30.2017 27.3646 30.6118 29.6331 30.9955C30.9744 31.2224 32.3406 30.8934 33.2304 30.025L36.5917 26.7444C38.686 24.7003 37.0503 21.1831 33.8732 20.9069C15.3983 19.3008 -10.9899 16.977 -11.5343 16.8071C-12.0981 16.6311 -6.25698 25.2169 -2.32891 30.8876C-1.54138 32.0245 -0.149098 32.6913 1.26781 32.6039C6.05235 32.309 16.9136 31.579 20.641 30.8232Z" fill="#AA3C22"/>
<path d="M20.862 26.2359C25.9969 25.3689 30.8181 27.632 32.7016 28.9426C32.7735 28.9926 32.8585 29.0197 32.946 29.0197C33.0501 29.0197 33.1462 28.9799 33.2105 28.9102L33.8828 28.1816C35.3994 26.5379 33.8929 23.9024 31.4366 23.9024L-1.16345 23.9024C-2.48996 23.9024 -3.33669 25.0698 -2.8388 26.2122C-2.45157 27.1007 -1.37991 27.6272 -0.355711 27.5646C1.60333 27.4449 4.66508 27.5716 8.2545 28.5284C14.5513 30.2069 14.3157 27.3412 20.862 26.2359Z" fill="#B66225"/>
</g>
<path d="M48.7173 14.5891V36.704H55.0066V23.8713C55.0066 22.7877 55.169 21.9179 55.4938 21.262C55.8185 20.5776 56.2024 20.0643 56.6453 19.7221C57.1177 19.3514 57.5902 19.109 58.0626 18.9949C58.5646 18.8523 58.9632 18.781 59.2585 18.781C60.2624 18.781 61.0153 18.9521 61.5173 19.2944C62.0488 19.608 62.4179 20.0358 62.6245 20.5776C62.8608 21.1194 62.9936 21.7183 63.0232 22.3742C63.0527 23.0016 63.0675 23.6432 63.0675 24.2991V36.704H69.3567V24.3846C69.3567 23.7002 69.401 23.0301 69.4896 22.3742C69.6077 21.6898 69.8144 21.0909 70.1097 20.5776C70.4345 20.0358 70.8626 19.608 71.3941 19.2944C71.9551 18.9521 72.6785 18.781 73.5643 18.781C74.4501 18.781 75.144 18.9236 75.646 19.2088C76.1775 19.494 76.5761 19.8789 76.8418 20.3637C77.1076 20.8485 77.27 21.4189 77.329 22.0748C77.3881 22.7306 77.4176 23.4293 77.4176 24.1707V36.704H83.7069V21.9037C83.7069 20.4778 83.5002 19.2658 83.0868 18.2677C82.6734 17.2411 82.0977 16.4141 81.3595 15.7868C80.6213 15.1594 79.7355 14.7031 78.702 14.418C77.6686 14.1328 76.5466 13.9902 75.336 13.9902C73.7415 13.9902 72.3537 14.3609 71.1726 15.1024C70.0211 15.8438 69.1057 16.6993 68.4266 17.6689C67.8065 16.3001 66.8912 15.3448 65.6806 14.8029C64.4995 14.2611 63.1856 13.9902 61.7387 13.9902C60.2329 13.9902 58.8894 14.3039 57.7083 14.9313C56.5567 15.5586 55.5676 16.4427 54.7408 17.5833H54.6522V14.5891H48.7173Z" fill="#2C2C2C"/>
<path d="M104.092 23.2725H93.8605C93.89 22.8447 93.9786 22.3599 94.1263 21.8181C94.3034 21.2763 94.5839 20.763 94.9678 20.2782C95.3812 19.7934 95.9126 19.3942 96.5622 19.0805C97.2414 18.7383 98.0829 18.5672 99.0868 18.5672C100.622 18.5672 101.759 18.9664 102.497 19.7649C103.265 20.5634 103.796 21.7325 104.092 23.2725ZM93.8605 27.1223H110.381C110.499 25.4112 110.351 23.7715 109.938 22.2031C109.525 20.6346 108.846 19.2373 107.901 18.0111C106.985 16.7849 105.804 15.8153 104.357 15.1024C102.911 14.3609 101.213 13.9902 99.264 13.9902C97.5219 13.9902 95.9274 14.2896 94.4806 14.8885C93.0633 15.4873 91.8379 16.3143 90.8045 17.3695C89.771 18.3961 88.9738 19.6223 88.4128 21.0481C87.8517 22.474 87.5712 24.0139 87.5712 25.6679C87.5712 27.3789 87.837 28.9473 88.3685 30.3732C88.9295 31.799 89.712 33.0253 90.7159 34.0519C91.7198 35.0785 92.9452 35.877 94.392 36.4473C95.8388 36.9891 97.4628 37.26 99.264 37.26C101.862 37.26 104.077 36.6897 105.908 35.549C107.738 34.4083 109.096 32.512 109.982 29.8599H104.446C104.239 30.5443 103.678 31.2002 102.763 31.8276C101.848 32.4264 100.755 32.7258 99.4854 32.7258C97.7138 32.7258 96.3555 32.2838 95.4107 31.3998C94.4658 30.5158 93.9491 29.0899 93.8605 27.1223Z" fill="#2C2C2C"/>
<path d="M122.083 14.5891V7.95886H115.794V14.5891H111.985V18.6527H115.794V31.6992C115.794 32.8114 115.986 33.7097 116.37 34.3941C116.754 35.0785 117.27 35.606 117.92 35.9768C118.599 36.3475 119.367 36.5899 120.223 36.704C121.109 36.8465 122.039 36.9178 123.013 36.9178C123.633 36.9178 124.268 36.9036 124.918 36.875C125.568 36.8465 126.158 36.7895 126.69 36.704V31.9986C126.394 32.0557 126.084 32.0985 125.759 32.127C125.435 32.1555 125.095 32.1698 124.741 32.1698C123.678 32.1698 122.969 31.9987 122.615 31.6564C122.26 31.3142 122.083 30.6298 122.083 29.6032V18.6527H126.69V14.5891H122.083Z" fill="#2C2C2C"/>
<path d="M139.603 16.2573C140.932 16.2573 142.098 16.5282 143.102 17.07C144.106 17.6119 144.933 18.3248 145.582 19.2088C146.261 20.0928 146.763 21.1052 147.088 22.2459C147.442 23.358 147.62 24.4987 147.62 25.6679C147.62 26.8371 147.442 27.992 147.088 29.1327C146.763 30.2449 146.261 31.243 145.582 32.127C144.933 33.011 144.106 33.7239 143.102 34.2658C142.098 34.8076 140.932 35.0785 139.603 35.0785C138.274 35.0785 137.108 34.8076 136.104 34.2658C135.1 33.7239 134.259 33.011 133.58 32.127C132.93 31.243 132.428 30.2449 132.074 29.1327C131.749 27.992 131.586 26.8371 131.586 25.6679C131.586 24.4987 131.749 23.358 132.074 22.2459C132.428 21.1052 132.93 20.0928 133.58 19.2088C134.259 18.3248 135.1 17.6119 136.104 17.07C137.108 16.5282 138.274 16.2573 139.603 16.2573ZM139.603 13.9902C137.861 13.9902 136.311 14.3039 134.953 14.9313C133.624 15.5586 132.502 16.3999 131.586 17.455C130.671 18.5101 129.977 19.7506 129.505 21.1765C129.032 22.5738 128.796 24.0709 128.796 25.6679C128.796 27.2648 129.032 28.7762 129.505 30.2021C129.977 31.5994 130.671 32.8256 131.586 33.8808C132.502 34.9359 133.624 35.7772 134.953 36.4045C136.311 37.0034 137.861 37.3028 139.603 37.3028C141.345 37.3028 142.881 37.0034 144.209 36.4045C145.568 35.7772 146.704 34.9359 147.62 33.8808C148.535 32.8256 149.229 31.5994 149.701 30.2021C150.174 28.7762 150.41 27.2648 150.41 25.6679C150.41 24.0709 150.174 22.5738 149.701 21.1765C149.229 19.7506 148.535 18.5101 147.62 17.455C146.704 16.3999 145.568 15.5586 144.209 14.9313C142.881 14.3039 141.345 13.9902 139.603 13.9902Z" fill="#2C2C2C"/>
<path d="M154.558 14.6318V44.8313H157.349V32.512H157.437C157.733 33.3104 158.146 34.0091 158.677 34.608C159.238 35.2068 159.873 35.7059 160.582 36.1051C161.291 36.5043 162.058 36.8038 162.885 37.0034C163.712 37.203 164.539 37.3028 165.365 37.3028C167.107 37.3028 168.613 37.0034 169.883 36.4045C171.182 35.7772 172.26 34.9359 173.116 33.8808C173.972 32.7971 174.607 31.5566 175.021 30.1593C175.434 28.7335 175.641 27.2363 175.641 25.6679C175.641 24.0995 175.434 22.6166 175.021 21.2192C174.607 19.7934 173.972 18.5529 173.116 17.4978C172.26 16.4141 171.182 15.5586 169.883 14.9313C168.613 14.3039 167.107 13.9902 165.365 13.9902C163.505 13.9902 161.837 14.418 160.36 15.2735C158.914 16.1005 157.865 17.2839 157.216 18.8238H157.127V14.6318H154.558ZM172.85 25.6679C172.85 26.8086 172.703 27.9492 172.408 29.0899C172.142 30.2021 171.699 31.2002 171.079 32.0842C170.488 32.9682 169.721 33.6954 168.776 34.2658C167.831 34.8076 166.694 35.0785 165.365 35.0785C163.889 35.0785 162.634 34.8076 161.601 34.2658C160.597 33.6954 159.77 32.9682 159.12 32.0842C158.5 31.2002 158.043 30.2021 157.747 29.0899C157.482 27.9492 157.349 26.8086 157.349 25.6679C157.349 24.4131 157.467 23.2154 157.703 22.0748C157.969 20.9341 158.412 19.936 159.032 19.0805C159.652 18.225 160.479 17.5406 161.512 17.0273C162.545 16.5139 163.83 16.2573 165.365 16.2573C166.694 16.2573 167.831 16.5425 168.776 17.1128C169.721 17.6546 170.488 18.3676 171.079 19.2516C171.699 20.1356 172.142 21.148 172.408 22.2886C172.703 23.4008 172.85 24.5272 172.85 25.6679Z" fill="#2C2C2C"/>
<path d="M184.42 14.6318V8.00164H181.63V14.6318H177.644V16.8989H181.63V31.9986C181.6 33.8808 181.954 35.1783 182.693 35.8912C183.431 36.5756 184.73 36.9178 186.59 36.9178C187.004 36.9178 187.417 36.9036 187.83 36.875C188.244 36.8465 188.657 36.8323 189.07 36.8323V34.5652C188.273 34.6507 187.476 34.6935 186.679 34.6935C185.675 34.6365 185.04 34.3656 184.774 33.8808C184.538 33.3675 184.42 32.6688 184.42 31.7848V16.8989H189.07V14.6318H184.42Z" fill="#2C2C2C"/>
<path d="M202.752 16.2573C204.081 16.2573 205.247 16.5282 206.251 17.07C207.255 17.6119 208.081 18.3248 208.731 19.2088C209.41 20.0928 209.912 21.1052 210.237 22.2459C210.591 23.358 210.768 24.4987 210.768 25.6679C210.768 26.8371 210.591 27.992 210.237 29.1327C209.912 30.2449 209.41 31.243 208.731 32.127C208.081 33.011 207.255 33.7239 206.251 34.2658C205.247 34.8076 204.081 35.0785 202.752 35.0785C201.423 35.0785 200.257 34.8076 199.253 34.2658C198.249 33.7239 197.407 33.011 196.728 32.127C196.079 31.243 195.577 30.2449 195.222 29.1327C194.898 27.992 194.735 26.8371 194.735 25.6679C194.735 24.4987 194.898 23.358 195.222 22.2459C195.577 21.1052 196.079 20.0928 196.728 19.2088C197.407 18.3248 198.249 17.6119 199.253 17.07C200.257 16.5282 201.423 16.2573 202.752 16.2573ZM202.752 13.9902C201.01 13.9902 199.46 14.3039 198.101 14.9313C196.773 15.5586 195.651 16.3999 194.735 17.455C193.82 18.5101 193.126 19.7506 192.654 21.1765C192.181 22.5738 191.945 24.0709 191.945 25.6679C191.945 27.2648 192.181 28.7762 192.654 30.2021C193.126 31.5994 193.82 32.8256 194.735 33.8808C195.651 34.9359 196.773 35.7772 198.101 36.4045C199.46 37.0034 201.01 37.3028 202.752 37.3028C204.494 37.3028 206.029 37.0034 207.358 36.4045C208.716 35.7772 209.853 34.9359 210.768 33.8808C211.684 32.8256 212.378 31.5994 212.85 30.2021C213.322 28.7762 213.559 27.2648 213.559 25.6679C213.559 24.0709 213.322 22.5738 212.85 21.1765C212.378 19.7506 211.684 18.5101 210.768 17.455C209.853 16.3999 208.716 15.5586 207.358 14.9313C206.029 14.3039 204.494 13.9902 202.752 13.9902Z" fill="#2C2C2C"/>
</svg>
